<mxfile host="app.diagrams.net" modified="2024-06-25T03:49:08.240Z" agent="Mozilla/5.0 (Windows NT 10.0; Win64; x64) AppleWebKit/537.36 (KHTML, like Gecko) Chrome/126.0.0.0 Safari/537.36" etag="DfxMgGEvKJA34nQB5OKn" version="24.6.2" type="device">
  <diagram name="Página-1" id="HuEw2wNl35t896j_TasQ">
    <mxGraphModel dx="2950" dy="928" grid="1" gridSize="10" guides="1" tooltips="1" connect="1" arrows="1" fold="1" page="0" pageScale="1" pageWidth="827" pageHeight="1169" math="0" shadow="0">
      <root>
        <mxCell id="0" />
        <mxCell id="1" parent="0" />
        <mxCell id="syB5oo233_tKWOmw8XyG-1" value="" style="rounded=0;whiteSpace=wrap;html=1;fillColor=#dae8fc;strokeColor=#6c8ebf;strokeWidth=2;" vertex="1" parent="1">
          <mxGeometry x="-787" y="120" width="570" height="630" as="geometry" />
        </mxCell>
        <mxCell id="syB5oo233_tKWOmw8XyG-2" style="rounded=0;orthogonalLoop=1;jettySize=auto;html=1;entryX=0;entryY=0.5;entryDx=0;entryDy=0;edgeStyle=orthogonalEdgeStyle;strokeColor=#3333FF;" edge="1" parent="1" source="syB5oo233_tKWOmw8XyG-3" target="syB5oo233_tKWOmw8XyG-7">
          <mxGeometry relative="1" as="geometry">
            <Array as="points">
              <mxPoint x="-840" y="313" />
              <mxPoint x="-840" y="170" />
            </Array>
          </mxGeometry>
        </mxCell>
        <mxCell id="syB5oo233_tKWOmw8XyG-3" value="ADMINISTRADOR" style="shape=umlActor;verticalLabelPosition=bottom;verticalAlign=top;html=1;outlineConnect=0;strokeColor=#3333FF;" vertex="1" parent="1">
          <mxGeometry x="-881" y="283" width="30" height="60" as="geometry" />
        </mxCell>
        <mxCell id="syB5oo233_tKWOmw8XyG-4" value="MENSAJERO" style="shape=umlActor;verticalLabelPosition=bottom;verticalAlign=top;html=1;outlineConnect=0;strokeColor=#EA6B66;" vertex="1" parent="1">
          <mxGeometry x="-167" y="450" width="30" height="60" as="geometry" />
        </mxCell>
        <mxCell id="syB5oo233_tKWOmw8XyG-5" style="rounded=0;orthogonalLoop=1;jettySize=auto;html=1;entryX=0.5;entryY=0;entryDx=0;entryDy=0;edgeStyle=orthogonalEdgeStyle;strokeColor=#67AB9F;" edge="1" parent="1" target="syB5oo233_tKWOmw8XyG-7">
          <mxGeometry relative="1" as="geometry">
            <Array as="points">
              <mxPoint x="-152" y="130" />
              <mxPoint x="-617" y="130" />
            </Array>
            <mxPoint x="-152" y="160" as="sourcePoint" />
          </mxGeometry>
        </mxCell>
        <mxCell id="syB5oo233_tKWOmw8XyG-6" value="CLIENTE" style="shape=umlActor;verticalLabelPosition=bottom;verticalAlign=top;html=1;outlineConnect=0;strokeColor=#67AB9F;" vertex="1" parent="1">
          <mxGeometry x="-167" y="170" width="30" height="60" as="geometry" />
        </mxCell>
        <mxCell id="syB5oo233_tKWOmw8XyG-7" value="Gestionar Ventas" style="ellipse;whiteSpace=wrap;html=1;fillColor=#99CCFF;strokeColor=#66B2FF;" vertex="1" parent="1">
          <mxGeometry x="-677" y="150" width="120" height="40" as="geometry" />
        </mxCell>
        <mxCell id="syB5oo233_tKWOmw8XyG-8" value="Gestionar Clientes" style="ellipse;whiteSpace=wrap;html=1;fillColor=#99CCFF;strokeColor=#66B2FF;" vertex="1" parent="1">
          <mxGeometry x="-563" y="180" width="120" height="40" as="geometry" />
        </mxCell>
        <mxCell id="syB5oo233_tKWOmw8XyG-9" value="Gestionar Productos" style="ellipse;whiteSpace=wrap;html=1;fillColor=#99CCFF;strokeColor=#66B2FF;" vertex="1" parent="1">
          <mxGeometry x="-677" y="220" width="120" height="40" as="geometry" />
        </mxCell>
        <mxCell id="syB5oo233_tKWOmw8XyG-11" value="Gestionar Ciudades" style="ellipse;whiteSpace=wrap;html=1;fillColor=#99CCFF;strokeColor=#66B2FF;" vertex="1" parent="1">
          <mxGeometry x="-550" y="260" width="120" height="40" as="geometry" />
        </mxCell>
        <mxCell id="syB5oo233_tKWOmw8XyG-13" value="Gestionar Empresas de Transporte" style="ellipse;whiteSpace=wrap;html=1;fillColor=#99CCFF;strokeColor=#66B2FF;" vertex="1" parent="1">
          <mxGeometry x="-683" y="310" width="120" height="40" as="geometry" />
        </mxCell>
        <mxCell id="syB5oo233_tKWOmw8XyG-14" value="Gestionar Proveedores" style="ellipse;whiteSpace=wrap;html=1;fillColor=#99CCFF;strokeColor=#66B2FF;" vertex="1" parent="1">
          <mxGeometry x="-563" y="360" width="120" height="40" as="geometry" />
        </mxCell>
        <mxCell id="syB5oo233_tKWOmw8XyG-15" style="rounded=0;orthogonalLoop=1;jettySize=auto;html=1;entryX=0;entryY=0.5;entryDx=0;entryDy=0;edgeStyle=orthogonalEdgeStyle;strokeColor=#3333FF;" edge="1" parent="1" target="syB5oo233_tKWOmw8XyG-8">
          <mxGeometry relative="1" as="geometry">
            <mxPoint x="-827" y="307" as="sourcePoint" />
            <mxPoint x="-667" y="170" as="targetPoint" />
            <Array as="points">
              <mxPoint x="-830" y="307" />
              <mxPoint x="-830" y="200" />
            </Array>
          </mxGeometry>
        </mxCell>
        <mxCell id="syB5oo233_tKWOmw8XyG-16" style="rounded=0;orthogonalLoop=1;jettySize=auto;html=1;entryX=0;entryY=0.5;entryDx=0;entryDy=0;edgeStyle=orthogonalEdgeStyle;strokeColor=#3333FF;" edge="1" parent="1" target="syB5oo233_tKWOmw8XyG-9">
          <mxGeometry relative="1" as="geometry">
            <mxPoint x="-827" y="320" as="sourcePoint" />
            <mxPoint x="-667" y="170" as="targetPoint" />
            <Array as="points">
              <mxPoint x="-820" y="321" />
              <mxPoint x="-820" y="240" />
            </Array>
          </mxGeometry>
        </mxCell>
        <mxCell id="syB5oo233_tKWOmw8XyG-18" style="rounded=0;orthogonalLoop=1;jettySize=auto;html=1;entryX=0;entryY=0.5;entryDx=0;entryDy=0;edgeStyle=orthogonalEdgeStyle;strokeColor=#3333FF;" edge="1" parent="1" target="syB5oo233_tKWOmw8XyG-11">
          <mxGeometry relative="1" as="geometry">
            <mxPoint x="-817" y="340" as="sourcePoint" />
            <mxPoint x="-667" y="250" as="targetPoint" />
            <Array as="points">
              <mxPoint x="-817" y="341" />
              <mxPoint x="-800" y="341" />
              <mxPoint x="-800" y="280" />
            </Array>
          </mxGeometry>
        </mxCell>
        <mxCell id="syB5oo233_tKWOmw8XyG-20" style="rounded=0;orthogonalLoop=1;jettySize=auto;html=1;entryX=0;entryY=0.5;entryDx=0;entryDy=0;edgeStyle=orthogonalEdgeStyle;strokeColor=#3333FF;" edge="1" parent="1" target="syB5oo233_tKWOmw8XyG-13">
          <mxGeometry relative="1" as="geometry">
            <mxPoint x="-797" y="360" as="sourcePoint" />
            <mxPoint x="-547" y="370" as="targetPoint" />
            <Array as="points">
              <mxPoint x="-797" y="361" />
              <mxPoint x="-770" y="361" />
              <mxPoint x="-770" y="330" />
            </Array>
          </mxGeometry>
        </mxCell>
        <mxCell id="syB5oo233_tKWOmw8XyG-21" style="rounded=0;orthogonalLoop=1;jettySize=auto;html=1;entryX=0;entryY=0.5;entryDx=0;entryDy=0;edgeStyle=orthogonalEdgeStyle;strokeColor=#3333FF;" edge="1" parent="1" target="syB5oo233_tKWOmw8XyG-14">
          <mxGeometry relative="1" as="geometry">
            <mxPoint x="-800" y="371" as="sourcePoint" />
            <mxPoint x="-667" y="410" as="targetPoint" />
            <Array as="points">
              <mxPoint x="-800" y="380" />
            </Array>
          </mxGeometry>
        </mxCell>
        <mxCell id="syB5oo233_tKWOmw8XyG-22" style="rounded=0;orthogonalLoop=1;jettySize=auto;html=1;entryX=1;entryY=0;entryDx=0;entryDy=0;strokeColor=#67AB9F;edgeStyle=orthogonalEdgeStyle;" edge="1" parent="1" target="syB5oo233_tKWOmw8XyG-8">
          <mxGeometry relative="1" as="geometry">
            <mxPoint x="-170" y="186" as="sourcePoint" />
            <mxPoint x="-667" y="250" as="targetPoint" />
            <Array as="points">
              <mxPoint x="-230" y="186" />
              <mxPoint x="-230" y="186" />
            </Array>
          </mxGeometry>
        </mxCell>
        <mxCell id="syB5oo233_tKWOmw8XyG-25" style="rounded=0;orthogonalLoop=1;jettySize=auto;html=1;entryX=1;entryY=1;entryDx=0;entryDy=0;strokeColor=#EA6B66;" edge="1" parent="1" target="syB5oo233_tKWOmw8XyG-26">
          <mxGeometry relative="1" as="geometry">
            <mxPoint x="-177" y="480" as="sourcePoint" />
            <mxPoint x="-427" y="370" as="targetPoint" />
          </mxGeometry>
        </mxCell>
        <mxCell id="syB5oo233_tKWOmw8XyG-26" value="Gestionar Envíos" style="ellipse;whiteSpace=wrap;html=1;fillColor=#99CCFF;strokeColor=#66B2FF;" vertex="1" parent="1">
          <mxGeometry x="-563" y="440" width="120" height="40" as="geometry" />
        </mxCell>
        <mxCell id="syB5oo233_tKWOmw8XyG-27" style="rounded=0;orthogonalLoop=1;jettySize=auto;html=1;entryX=0;entryY=0.5;entryDx=0;entryDy=0;edgeStyle=orthogonalEdgeStyle;strokeColor=#3333FF;" edge="1" parent="1" target="syB5oo233_tKWOmw8XyG-26">
          <mxGeometry relative="1" as="geometry">
            <mxPoint x="-817" y="370" as="sourcePoint" />
            <mxPoint x="-552" y="450" as="targetPoint" />
            <Array as="points">
              <mxPoint x="-817" y="460" />
            </Array>
          </mxGeometry>
        </mxCell>
        <mxCell id="syB5oo233_tKWOmw8XyG-28" value="Gestionar Usuarios" style="ellipse;whiteSpace=wrap;html=1;fillColor=#99CCFF;strokeColor=#66B2FF;" vertex="1" parent="1">
          <mxGeometry x="-563" y="510" width="120" height="40" as="geometry" />
        </mxCell>
        <mxCell id="syB5oo233_tKWOmw8XyG-29" style="rounded=0;orthogonalLoop=1;jettySize=auto;html=1;entryX=0;entryY=0.5;entryDx=0;entryDy=0;edgeStyle=orthogonalEdgeStyle;strokeColor=#3333FF;" edge="1" parent="1" target="syB5oo233_tKWOmw8XyG-28">
          <mxGeometry relative="1" as="geometry">
            <mxPoint x="-827" y="370" as="sourcePoint" />
            <mxPoint x="-667" y="500" as="targetPoint" />
            <Array as="points">
              <mxPoint x="-827" y="530" />
            </Array>
          </mxGeometry>
        </mxCell>
        <mxCell id="syB5oo233_tKWOmw8XyG-32" value="Gestionar Pedidos a Proveedores" style="ellipse;whiteSpace=wrap;html=1;fillColor=#99CCFF;strokeColor=#66B2FF;" vertex="1" parent="1">
          <mxGeometry x="-430" y="570" width="120" height="40" as="geometry" />
        </mxCell>
        <mxCell id="syB5oo233_tKWOmw8XyG-34" value="Gestionar Parámetros" style="ellipse;whiteSpace=wrap;html=1;fillColor=#99CCFF;strokeColor=#66B2FF;" vertex="1" parent="1">
          <mxGeometry x="-677" y="600" width="120" height="40" as="geometry" />
        </mxCell>
        <mxCell id="syB5oo233_tKWOmw8XyG-35" style="rounded=0;orthogonalLoop=1;jettySize=auto;html=1;entryX=0;entryY=0.5;entryDx=0;entryDy=0;edgeStyle=orthogonalEdgeStyle;strokeColor=#3333FF;" edge="1" parent="1" target="syB5oo233_tKWOmw8XyG-34">
          <mxGeometry relative="1" as="geometry">
            <mxPoint x="-857" y="370" as="sourcePoint" />
            <mxPoint x="-553" y="650" as="targetPoint" />
            <Array as="points">
              <mxPoint x="-857" y="620" />
            </Array>
          </mxGeometry>
        </mxCell>
        <mxCell id="syB5oo233_tKWOmw8XyG-36" value="LA CASA DE LA&amp;nbsp; AMAROK" style="text;html=1;strokeColor=none;fillColor=none;align=center;verticalAlign=middle;whiteSpace=wrap;rounded=0;fontSize=19;fontColor=#000066;" vertex="1" parent="1">
          <mxGeometry x="-657" y="73" width="320" height="30" as="geometry" />
        </mxCell>
        <mxCell id="syB5oo233_tKWOmw8XyG-37" value="Gestionar Mensajes de Contacto" style="ellipse;whiteSpace=wrap;html=1;fillColor=#99CCFF;strokeColor=#66B2FF;" vertex="1" parent="1">
          <mxGeometry x="-562" y="660" width="120" height="40" as="geometry" />
        </mxCell>
        <mxCell id="syB5oo233_tKWOmw8XyG-38" style="rounded=0;orthogonalLoop=1;jettySize=auto;html=1;entryX=0;entryY=0.5;entryDx=0;entryDy=0;edgeStyle=orthogonalEdgeStyle;strokeColor=#3333FF;" edge="1" parent="1" target="syB5oo233_tKWOmw8XyG-37">
          <mxGeometry relative="1" as="geometry">
            <mxPoint x="-880" y="370" as="sourcePoint" />
            <mxPoint x="-547" y="570" as="targetPoint" />
            <Array as="points">
              <mxPoint x="-880" y="680" />
            </Array>
          </mxGeometry>
        </mxCell>
        <mxCell id="syB5oo233_tKWOmw8XyG-39" value="VENDEDOR" style="shape=umlActor;verticalLabelPosition=bottom;verticalAlign=top;html=1;outlineConnect=0;strokeColor=#633200;" vertex="1" parent="1">
          <mxGeometry x="-167" y="290" width="30" height="60" as="geometry" />
        </mxCell>
        <mxCell id="syB5oo233_tKWOmw8XyG-42" style="rounded=0;orthogonalLoop=1;jettySize=auto;html=1;entryX=1;entryY=0;entryDx=0;entryDy=0;strokeColor=#633200;edgeStyle=orthogonalEdgeStyle;" edge="1" parent="1" target="syB5oo233_tKWOmw8XyG-7">
          <mxGeometry relative="1" as="geometry">
            <mxPoint x="-170" y="300" as="sourcePoint" />
            <mxPoint x="-433" y="210" as="targetPoint" />
            <Array as="points">
              <mxPoint x="-170" y="300" />
              <mxPoint x="-240" y="300" />
              <mxPoint x="-240" y="156" />
            </Array>
          </mxGeometry>
        </mxCell>
        <mxCell id="syB5oo233_tKWOmw8XyG-43" style="rounded=0;orthogonalLoop=1;jettySize=auto;html=1;entryX=1;entryY=0.5;entryDx=0;entryDy=0;strokeColor=#633200;edgeStyle=orthogonalEdgeStyle;" edge="1" parent="1" target="syB5oo233_tKWOmw8XyG-8">
          <mxGeometry relative="1" as="geometry">
            <mxPoint x="-170" y="310" as="sourcePoint" />
            <mxPoint x="-565" y="166" as="targetPoint" />
            <Array as="points">
              <mxPoint x="-270" y="310" />
              <mxPoint x="-270" y="200" />
            </Array>
          </mxGeometry>
        </mxCell>
        <mxCell id="syB5oo233_tKWOmw8XyG-44" style="rounded=0;orthogonalLoop=1;jettySize=auto;html=1;entryX=1;entryY=0.5;entryDx=0;entryDy=0;strokeColor=#633200;edgeStyle=orthogonalEdgeStyle;" edge="1" parent="1" target="syB5oo233_tKWOmw8XyG-9">
          <mxGeometry relative="1" as="geometry">
            <mxPoint x="-160" y="320" as="sourcePoint" />
            <mxPoint x="-433" y="210" as="targetPoint" />
            <Array as="points">
              <mxPoint x="-290" y="320" />
              <mxPoint x="-290" y="240" />
            </Array>
          </mxGeometry>
        </mxCell>
        <mxCell id="syB5oo233_tKWOmw8XyG-45" style="rounded=0;orthogonalLoop=1;jettySize=auto;html=1;entryX=1;entryY=0.5;entryDx=0;entryDy=0;strokeColor=#633200;edgeStyle=orthogonalEdgeStyle;" edge="1" parent="1" target="syB5oo233_tKWOmw8XyG-11">
          <mxGeometry relative="1" as="geometry">
            <mxPoint x="-170" y="330" as="sourcePoint" />
            <mxPoint x="-547" y="250" as="targetPoint" />
            <Array as="points">
              <mxPoint x="-300" y="330" />
              <mxPoint x="-300" y="280" />
            </Array>
          </mxGeometry>
        </mxCell>
        <mxCell id="syB5oo233_tKWOmw8XyG-46" style="rounded=0;orthogonalLoop=1;jettySize=auto;html=1;entryX=1;entryY=0.5;entryDx=0;entryDy=0;strokeColor=#633200;edgeStyle=orthogonalEdgeStyle;" edge="1" parent="1" target="syB5oo233_tKWOmw8XyG-13">
          <mxGeometry relative="1" as="geometry">
            <mxPoint x="-180" y="350" as="sourcePoint" />
            <mxPoint x="-420" y="290" as="targetPoint" />
            <Array as="points">
              <mxPoint x="-180" y="350" />
              <mxPoint x="-340" y="350" />
              <mxPoint x="-340" y="330" />
            </Array>
          </mxGeometry>
        </mxCell>
        <mxCell id="syB5oo233_tKWOmw8XyG-47" style="rounded=0;orthogonalLoop=1;jettySize=auto;html=1;entryX=1;entryY=0.5;entryDx=0;entryDy=0;strokeColor=#633200;edgeStyle=orthogonalEdgeStyle;" edge="1" parent="1" target="syB5oo233_tKWOmw8XyG-14">
          <mxGeometry relative="1" as="geometry">
            <mxPoint x="-190" y="370" as="sourcePoint" />
            <mxPoint x="-553" y="340" as="targetPoint" />
            <Array as="points">
              <mxPoint x="-190" y="380" />
            </Array>
          </mxGeometry>
        </mxCell>
        <mxCell id="syB5oo233_tKWOmw8XyG-48" style="rounded=0;orthogonalLoop=1;jettySize=auto;html=1;entryX=1;entryY=0.5;entryDx=0;entryDy=0;strokeColor=#633200;edgeStyle=orthogonalEdgeStyle;" edge="1" parent="1" target="syB5oo233_tKWOmw8XyG-26">
          <mxGeometry relative="1" as="geometry">
            <mxPoint x="-180" y="380" as="sourcePoint" />
            <mxPoint x="-433" y="380" as="targetPoint" />
            <Array as="points">
              <mxPoint x="-180" y="460" />
            </Array>
          </mxGeometry>
        </mxCell>
        <mxCell id="syB5oo233_tKWOmw8XyG-49" value="BODEGUERO" style="shape=umlActor;verticalLabelPosition=bottom;verticalAlign=top;html=1;outlineConnect=0;strokeColor=#333333;" vertex="1" parent="1">
          <mxGeometry x="-167" y="610" width="30" height="60" as="geometry" />
        </mxCell>
        <mxCell id="syB5oo233_tKWOmw8XyG-52" style="rounded=0;orthogonalLoop=1;jettySize=auto;html=1;entryX=1;entryY=0.5;entryDx=0;entryDy=0;strokeColor=#333333;" edge="1" parent="1" target="syB5oo233_tKWOmw8XyG-32">
          <mxGeometry relative="1" as="geometry">
            <mxPoint x="-170" y="640" as="sourcePoint" />
            <mxPoint x="-565" y="464" as="targetPoint" />
          </mxGeometry>
        </mxCell>
      </root>
    </mxGraphModel>
  </diagram>
</mxfile>
